<svg width="384" height="647" viewBox="0 0 384 647" fill="none" xmlns="http://www.w3.org/2000/svg">
<path d="M31.9458 0C23.4762 0.00963936 15.3562 3.37844 9.36734 9.36736C3.37843 15.3563 0.00962875 23.4762 0 31.9458V615.055C0.00976905 623.524 3.37863 631.644 9.36752 637.633C15.3564 643.622 23.4763 646.99 31.9458 647H351.343C359.813 646.99 367.932 643.622 373.921 637.633C379.91 631.644 383.279 623.524 383.289 615.055V31.9458C383.279 23.4762 379.91 15.3562 373.921 9.36734C367.933 3.37844 359.813 0.00963667 351.343 0H31.9458Z" fill="#0B0148"/>
<path d="M42.3869 18.1484C35.9612 18.1557 29.8008 20.7116 25.2572 25.2552C20.7135 29.7989 18.1577 35.9593 18.1504 42.385V604.611C18.1576 611.037 20.7134 617.197 25.257 621.741C29.8007 626.285 35.9612 628.841 42.3869 628.848H340.902C347.328 628.841 353.489 626.285 358.032 621.741C362.576 617.197 365.132 611.037 365.139 604.611V42.385C365.132 35.9593 362.576 29.7989 358.032 25.2552C353.488 20.7116 347.328 18.1558 340.902 18.1484H42.3869Z" fill="#121862"/>
<path d="M335.778 136.648H47.5102C46.0949 136.647 44.738 136.084 43.7373 135.083C42.7365 134.082 42.1735 132.725 42.1719 131.31V59.8031C42.1735 58.3878 42.7365 57.031 43.7373 56.0302C44.738 55.0294 46.0949 54.4665 47.5102 54.4648H335.778C337.193 54.4665 338.55 55.0294 339.551 56.0302C340.552 57.031 341.115 58.3878 341.116 59.8031V131.31C341.115 132.725 340.552 134.082 339.551 135.083C338.55 136.084 337.193 136.647 335.778 136.648V136.648ZM47.5102 56.6001C46.661 56.601 45.8468 56.9388 45.2463 57.5393C44.6458 58.1398 44.3081 58.9539 44.3072 59.8031V131.31C44.3081 132.159 44.6458 132.973 45.2463 133.574C45.8468 134.174 46.661 134.512 47.5102 134.513H335.778C336.627 134.512 337.441 134.174 338.042 133.574C338.642 132.973 338.98 132.159 338.981 131.31V59.8031C338.98 58.9539 338.642 58.1398 338.042 57.5393C337.441 56.9388 336.627 56.601 335.778 56.6001L47.5102 56.6001Z" fill="#3EDADD"/>
<path d="M335.778 419.575H47.5102C46.0949 419.573 44.7381 419.01 43.7373 418.01C42.7365 417.009 42.1736 415.652 42.1719 414.237V281.873C42.1735 280.458 42.7365 279.101 43.7373 278.101C44.738 277.1 46.0949 276.537 47.5102 276.535H335.778C337.193 276.537 338.55 277.1 339.551 278.101C340.552 279.101 341.115 280.458 341.116 281.873V414.237C341.115 415.652 340.552 417.009 339.551 418.01C338.55 419.01 337.193 419.573 335.778 419.575V419.575ZM47.5102 278.67C46.661 278.671 45.8468 279.009 45.2463 279.61C44.6458 280.21 44.3081 281.024 44.3072 281.873V414.237C44.3081 415.086 44.6458 415.9 45.2463 416.501C45.8468 417.101 46.661 417.439 47.5102 417.44H335.778C336.627 417.439 337.441 417.101 338.042 416.501C338.642 415.9 338.98 415.086 338.981 414.237V281.873C338.98 281.024 338.642 280.21 338.042 279.61C337.441 279.009 336.627 278.671 335.778 278.67L47.5102 278.67Z" fill="#3EDADD"/>
<path d="M333.643 247.684H205.524C204.109 247.682 202.752 247.119 201.751 246.118C200.75 245.117 200.187 243.761 200.186 242.345V170.838C200.187 169.423 200.75 168.066 201.751 167.065C202.752 166.065 204.109 165.502 205.524 165.5H333.643C335.058 165.502 336.415 166.065 337.416 167.065C338.417 168.066 338.98 169.423 338.981 170.838V242.345C338.98 243.761 338.417 245.117 337.416 246.118C336.415 247.119 335.058 247.682 333.643 247.684V247.684ZM205.524 167.635C204.675 167.636 203.86 167.974 203.26 168.574C202.659 169.175 202.322 169.989 202.321 170.838V242.345C202.322 243.194 202.659 244.009 203.26 244.609C203.86 245.21 204.675 245.547 205.524 245.548H333.643C334.492 245.547 335.307 245.21 335.907 244.609C336.507 244.009 336.845 243.194 336.846 242.345V170.838C336.845 169.989 336.507 169.175 335.907 168.574C335.307 167.974 334.492 167.636 333.643 167.635L205.524 167.635Z" fill="#3EDADD"/>
<path d="M175.63 592.537H47.5102C46.0949 592.536 44.738 591.973 43.7373 590.972C42.7365 589.971 42.1735 588.614 42.1719 587.199V453.768C42.1736 452.353 42.7365 450.996 43.7373 449.995C44.7381 448.994 46.0949 448.431 47.5102 448.43H175.63C177.045 448.431 178.402 448.994 179.402 449.995C180.403 450.996 180.966 452.353 180.968 453.768V587.199C180.966 588.614 180.403 589.971 179.402 590.972C178.402 591.973 177.045 592.536 175.63 592.537V592.537ZM47.5102 450.565C46.661 450.566 45.8468 450.904 45.2463 451.504C44.6458 452.105 44.3081 452.919 44.3072 453.768V587.199C44.3081 588.048 44.6458 588.862 45.2463 589.463C45.8468 590.063 46.661 590.401 47.5102 590.402H175.63C176.479 590.401 177.293 590.063 177.893 589.463C178.494 588.862 178.832 588.048 178.832 587.199V453.768C178.832 452.919 178.494 452.105 177.893 451.504C177.293 450.904 176.479 450.566 175.63 450.565H47.5102Z" fill="#3EDADD"/>
<path d="M333.643 592.537H205.524C204.109 592.536 202.752 591.973 201.751 590.972C200.75 589.971 200.187 588.614 200.186 587.199V453.768C200.187 452.353 200.75 450.996 201.751 449.995C202.752 448.994 204.109 448.431 205.524 448.43H333.643C335.058 448.431 336.415 448.994 337.416 449.995C338.417 450.996 338.98 452.353 338.981 453.768V587.199C338.98 588.614 338.417 589.971 337.416 590.972C336.415 591.973 335.058 592.536 333.643 592.537V592.537ZM205.524 450.565C204.675 450.566 203.86 450.904 203.26 451.504C202.659 452.105 202.322 452.919 202.321 453.768V587.199C202.322 588.048 202.659 588.862 203.26 589.463C203.86 590.063 204.675 590.401 205.524 590.402H333.643C334.492 590.401 335.307 590.063 335.907 589.463C336.507 588.862 336.845 588.048 336.846 587.199V453.768C336.845 452.919 336.507 452.105 335.907 451.504C335.307 450.904 334.492 450.566 333.643 450.565H205.524Z" fill="#3EDADD"/>
<path d="M90.1662 345.17C102.176 345.17 111.912 335.435 111.912 323.425C111.912 311.415 102.176 301.68 90.1662 301.68C78.1566 301.68 68.4209 311.415 68.4209 323.425C68.4209 335.435 78.1566 345.17 90.1662 345.17Z" fill="#3EDADD"/>
<path d="M140.388 308.93C139.427 308.93 138.505 309.312 137.825 309.991C137.146 310.671 136.764 311.593 136.764 312.554C136.764 313.515 137.146 314.437 137.825 315.117C138.505 315.796 139.427 316.178 140.388 316.178H311.244C312.204 316.176 313.124 315.793 313.801 315.114C314.479 314.434 314.86 313.514 314.86 312.554C314.86 311.594 314.479 310.674 313.801 309.994C313.124 309.315 312.204 308.932 311.244 308.93H140.388Z" fill="#3EDADD"/>
<path d="M140.388 330.672C139.427 330.671 138.506 331.051 137.825 331.729C137.145 332.407 136.762 333.328 136.76 334.288C136.758 335.249 137.137 336.171 137.815 336.852C138.492 337.533 139.412 337.917 140.373 337.92H213.908C214.869 337.92 215.791 337.538 216.471 336.859C217.15 336.179 217.532 335.257 217.532 334.296C217.532 333.335 217.15 332.413 216.471 331.733C215.791 331.054 214.869 330.672 213.908 330.672H140.388Z" fill="#3EDADD"/>
<path d="M73.4866 365.438C70.7298 365.438 68.4863 367.064 68.4863 369.062C68.4863 371.06 70.7298 372.686 73.4866 372.686H309.216C311.973 372.686 314.216 371.06 314.216 369.062C314.216 367.064 311.973 365.438 309.216 365.438H73.4866Z" fill="#3EDADD"/>
<path d="M73.4866 387.184C70.7298 387.184 68.4863 388.81 68.4863 390.808C68.4863 392.806 70.7298 394.432 73.4866 394.432H309.216C311.973 394.432 314.216 392.806 314.216 390.808C314.216 388.81 311.973 387.184 309.216 387.184H73.4866Z" fill="#3EDADD"/>
<path d="M92.301 114.557C104.311 114.557 114.046 104.821 114.046 92.8118C114.046 80.8021 104.311 71.0664 92.301 71.0664C80.2914 71.0664 70.5557 80.8021 70.5557 92.8118C70.5557 104.821 80.2914 114.557 92.301 114.557Z" fill="#3EDADD"/>
<path d="M142.523 78.3164C141.563 78.3187 140.644 78.7015 139.966 79.3809C139.288 80.0603 138.907 80.9809 138.907 81.9406C138.907 82.9003 139.288 83.8209 139.966 84.5003C140.644 85.1797 141.563 85.5626 142.523 85.5648H313.379C313.856 85.5663 314.327 85.474 314.768 85.293C315.208 85.112 315.609 84.8459 315.947 84.5101C316.284 84.1742 316.552 83.7751 316.736 83.3355C316.919 82.8959 317.014 82.4245 317.015 81.9483C317.016 81.472 316.923 81.0003 316.742 80.5599C316.56 80.1196 316.294 79.7193 315.957 79.382C315.621 79.0447 315.222 78.777 314.782 78.5941C314.342 78.4113 313.871 78.3169 313.395 78.3164C313.389 78.3164 313.384 78.3164 313.379 78.3164H142.523Z" fill="#3EDADD"/>
<path d="M142.523 100.059C141.562 100.06 140.642 100.443 139.964 101.122C139.285 101.802 138.904 102.723 138.904 103.683C138.904 104.643 139.285 105.564 139.964 106.243C140.642 106.923 141.562 107.305 142.523 107.307H216.043C217.004 107.309 217.926 106.929 218.607 106.251C219.289 105.573 219.672 104.652 219.674 103.69C219.676 102.729 219.297 101.807 218.618 101.126C217.94 100.444 217.019 100.061 216.058 100.059C216.053 100.059 216.048 100.059 216.043 100.059H142.523Z" fill="#3EDADD"/>
<path d="M175.516 247.696H55.3291L83.6131 198.706C84.12 197.828 84.8491 197.098 85.7272 196.591C86.6052 196.085 87.6013 195.818 88.6151 195.818C89.629 195.818 90.625 196.085 91.5031 196.591C92.3811 197.098 93.1103 197.828 93.6172 198.706L105.7 219.633L126.244 184.049C126.879 182.95 127.792 182.037 128.891 181.402C129.99 180.768 131.237 180.434 132.507 180.434C133.776 180.434 135.023 180.768 136.123 181.402C137.222 182.037 138.135 182.95 138.769 184.049L175.516 247.696ZM59.0273 245.561H171.818L136.92 185.117C136.473 184.342 135.83 183.699 135.055 183.252C134.28 182.804 133.401 182.569 132.507 182.569C131.612 182.569 130.734 182.804 129.959 183.252C129.184 183.699 128.541 184.342 128.094 185.117L105.7 223.904L91.7676 199.773C91.4482 199.22 90.9887 198.76 90.4354 198.441C89.882 198.121 89.2542 197.953 88.6152 197.953C87.9762 197.953 87.3484 198.121 86.7951 198.441C86.2417 198.76 85.7822 199.22 85.4628 199.773L59.0273 245.561Z" fill="#3EDADD"/>
<path d="M329.259 247.696H209.072L237.356 198.706C237.863 197.828 238.592 197.098 239.47 196.591C240.348 196.084 241.344 195.818 242.358 195.818C243.372 195.818 244.368 196.084 245.246 196.591C246.124 197.098 246.853 197.828 247.36 198.706L259.443 219.633L279.987 184.049C280.622 182.95 281.535 182.037 282.634 181.402C283.734 180.768 284.981 180.434 286.25 180.434C287.519 180.434 288.766 180.768 289.866 181.402C290.965 182.037 291.878 182.95 292.513 184.049L329.259 247.696ZM212.771 245.561H325.561L290.663 185.117C290.216 184.342 289.573 183.699 288.798 183.252C288.023 182.804 287.145 182.569 286.25 182.569C285.356 182.569 284.477 182.804 283.702 183.252C282.928 183.699 282.284 184.342 281.837 185.117L259.443 223.904L245.511 199.773C245.191 199.22 244.732 198.76 244.178 198.441C243.625 198.121 242.997 197.953 242.358 197.953C241.719 197.953 241.092 198.121 240.538 198.441C239.985 198.76 239.525 199.22 239.206 199.773L212.771 245.561Z" fill="#3EDADD"/>
<path d="M175.629 247.684H47.5101C46.0948 247.682 44.738 247.119 43.7372 246.118C42.7365 245.117 42.1735 243.76 42.1719 242.345V170.838C42.1735 169.423 42.7365 168.066 43.7373 167.065C44.738 166.065 46.0949 165.502 47.5102 165.5H175.629C177.045 165.502 178.402 166.065 179.402 167.065C180.403 168.066 180.966 169.423 180.968 170.838V242.345C180.966 243.761 180.403 245.117 179.402 246.118C178.402 247.119 177.045 247.682 175.629 247.684V247.684ZM47.5101 167.635C46.6609 167.636 45.8468 167.974 45.2463 168.574C44.6458 169.175 44.3081 169.989 44.3071 170.838V242.345C44.3081 243.194 44.6458 244.009 45.2463 244.609C45.8468 245.21 46.6609 245.547 47.5101 245.548H175.629C176.479 245.547 177.293 245.21 177.893 244.609C178.494 244.009 178.832 243.194 178.832 242.345V170.838C178.832 169.989 178.494 169.175 177.893 168.574C177.293 167.974 176.479 167.636 175.629 167.635L47.5101 167.635Z" fill="#3EDADD"/>
<path d="M74.81 475.945C74.3335 475.945 73.8616 476.038 73.4212 476.219C72.9808 476.401 72.5805 476.668 72.2433 477.005C71.9062 477.341 71.6387 477.741 71.4561 478.181C71.2736 478.621 71.1797 479.093 71.1797 479.57C71.1797 480.046 71.2736 480.518 71.4561 480.958C71.6387 481.398 71.9062 481.798 72.2433 482.134C72.5805 482.471 72.9808 482.738 73.4212 482.92C73.8616 483.101 74.3335 483.195 74.81 483.194H148.33C148.806 483.195 149.278 483.101 149.719 482.92C150.159 482.738 150.559 482.471 150.897 482.134C151.234 481.798 151.501 481.398 151.684 480.958C151.866 480.518 151.96 480.046 151.96 479.57C151.96 479.093 151.866 478.621 151.684 478.181C151.501 477.741 151.234 477.341 150.897 477.005C150.559 476.668 150.159 476.401 149.719 476.219C149.278 476.038 148.806 475.945 148.33 475.945H74.81Z" fill="#3EDADD"/>
<path d="M74.8098 497.297C73.8486 497.297 72.9267 497.679 72.2471 498.358C71.5674 499.038 71.1855 499.96 71.1855 500.921C71.1855 501.882 71.5674 502.804 72.2471 503.484C72.9267 504.164 73.8486 504.545 74.8098 504.545H148.33C149.291 504.545 150.213 504.164 150.893 503.484C151.572 502.804 151.954 501.882 151.954 500.921C151.954 499.96 151.572 499.038 150.893 498.358C150.213 497.679 149.291 497.297 148.33 497.297H74.8098Z" fill="#3EDADD"/>
<path d="M111.571 565.02C107.059 565.02 102.648 563.682 98.8965 561.176C95.145 558.669 92.221 555.106 90.4944 550.937C88.7677 546.769 88.3159 542.182 89.1962 537.757C90.0764 533.332 92.2491 529.267 95.4396 526.076C98.63 522.886 102.695 520.713 107.12 519.833C111.545 518.953 116.132 519.404 120.301 521.131C124.469 522.858 128.032 525.782 130.539 529.533C133.046 533.285 134.384 537.695 134.384 542.207C134.377 548.256 131.971 554.054 127.694 558.331C123.417 562.608 117.619 565.013 111.571 565.02V565.02ZM111.571 521.53C107.481 521.53 103.483 522.743 100.083 525.015C96.6824 527.287 94.0321 530.516 92.4671 534.294C90.9021 538.073 90.4926 542.23 91.2904 546.241C92.0883 550.252 94.0577 553.937 96.9495 556.829C99.8413 559.72 103.526 561.69 107.537 562.488C111.548 563.285 115.705 562.876 119.484 561.311C123.262 559.746 126.491 557.096 128.763 553.695C131.035 550.295 132.248 546.297 132.248 542.207C132.242 536.725 130.061 531.47 126.185 527.593C122.308 523.717 117.053 521.536 111.571 521.53V521.53Z" fill="#3EDADD"/>
<path d="M306.343 565.022C306.82 565.023 307.292 564.93 307.732 564.748C308.172 564.566 308.573 564.299 308.91 563.963C309.247 563.626 309.515 563.226 309.697 562.786C309.88 562.346 309.974 561.874 309.974 561.398C309.974 560.921 309.88 560.45 309.697 560.009C309.515 559.569 309.247 559.169 308.91 558.833C308.573 558.496 308.172 558.229 307.732 558.048C307.292 557.866 306.82 557.773 306.343 557.773H232.823C231.863 557.775 230.943 558.158 230.264 558.837C229.586 559.517 229.205 560.438 229.205 561.398C229.205 562.358 229.586 563.279 230.264 563.958C230.943 564.638 231.863 565.02 232.823 565.022H306.343Z" fill="#3EDADD"/>
<path d="M306.343 543.666C306.82 543.667 307.292 543.574 307.732 543.392C308.173 543.211 308.573 542.944 308.91 542.607C309.247 542.27 309.515 541.871 309.697 541.431C309.88 540.99 309.974 540.519 309.974 540.042C309.974 539.566 309.88 539.094 309.697 538.654C309.515 538.214 309.247 537.814 308.91 537.477C308.573 537.141 308.173 536.874 307.732 536.692C307.292 536.51 306.82 536.417 306.343 536.418H232.823C231.862 536.418 230.94 536.8 230.261 537.479C229.581 538.159 229.199 539.081 229.199 540.042C229.199 541.003 229.581 541.925 230.261 542.605C230.94 543.285 231.862 543.666 232.823 543.666H306.343Z" fill="#3EDADD"/>
<path d="M269.583 475.945C274.095 475.945 278.506 477.283 282.257 479.79C286.009 482.297 288.933 485.86 290.66 490.028C292.386 494.197 292.838 498.783 291.958 503.209C291.078 507.634 288.905 511.699 285.714 514.889C282.524 518.08 278.459 520.252 274.034 521.133C269.609 522.013 265.022 521.561 260.853 519.834C256.685 518.108 253.122 515.184 250.615 511.432C248.108 507.681 246.771 503.27 246.771 498.758V498.758C246.777 492.71 249.183 486.911 253.46 482.635C257.737 478.358 263.535 475.952 269.583 475.945V475.945ZM269.583 519.436C273.673 519.436 277.671 518.223 281.071 515.951C284.472 513.679 287.122 510.45 288.687 506.671C290.252 502.893 290.661 498.735 289.864 494.724C289.066 490.713 287.097 487.029 284.205 484.137C281.313 481.245 277.629 479.276 273.617 478.478C269.606 477.68 265.449 478.09 261.671 479.655C257.892 481.22 254.663 483.87 252.391 487.27C250.119 490.671 248.906 494.668 248.906 498.758V498.758C248.912 504.24 251.093 509.496 254.969 513.372C258.846 517.249 264.101 519.429 269.583 519.436V519.436Z" fill="#3EDADD"/>
<path opacity="0.3" d="M234.637 186.191C264.46 186.191 288.637 162.015 288.637 132.191C288.637 102.368 264.46 78.1914 234.637 78.1914C204.813 78.1914 180.637 102.368 180.637 132.191C180.637 162.015 204.813 186.191 234.637 186.191Z" fill="#3EDADD"/>
<path opacity="0.3" d="M234.637 168.191C254.519 168.191 270.637 152.074 270.637 132.191C270.637 112.309 254.519 96.1914 234.637 96.1914C214.754 96.1914 198.637 112.309 198.637 132.191C198.637 152.074 214.754 168.191 234.637 168.191Z" fill="#3EDADD"/>
<path d="M234.637 157.191C248.444 157.191 259.637 145.999 259.637 132.191C259.637 118.384 248.444 107.191 234.637 107.191C220.83 107.191 209.637 118.384 209.637 132.191C209.637 145.999 220.83 157.191 234.637 157.191Z" fill="#3EDADD"/>
<path opacity="0.3" d="M111.636 537.116C133.684 537.116 151.557 519.243 151.557 497.195C151.557 475.147 133.684 457.273 111.636 457.273C89.5882 457.273 71.7148 475.147 71.7148 497.195C71.7148 519.243 89.5882 537.116 111.636 537.116Z" fill="#3EDADD"/>
<path opacity="0.3" d="M111.637 523.806C126.335 523.806 138.251 511.891 138.251 497.192C138.251 482.494 126.335 470.578 111.637 470.578C96.938 470.578 85.0225 482.494 85.0225 497.192C85.0225 511.891 96.938 523.806 111.637 523.806Z" fill="#3EDADD"/>
<path d="M111.636 515.675C121.844 515.675 130.118 507.4 130.118 497.193C130.118 486.986 121.844 478.711 111.636 478.711C101.429 478.711 93.1543 486.986 93.1543 497.193C93.1543 507.4 101.429 515.675 111.636 515.675Z" fill="#3EDADD"/>
<path opacity="0.3" d="M277.636 387.116C302.998 387.116 323.557 366.556 323.557 341.195C323.557 315.833 302.998 295.273 277.636 295.273C252.274 295.273 231.715 315.833 231.715 341.195C231.715 366.556 252.274 387.116 277.636 387.116Z" fill="#3EDADD"/>
<path opacity="0.3" d="M277.637 371.806C294.544 371.806 308.251 358.1 308.251 341.192C308.251 324.285 294.544 310.578 277.637 310.578C260.729 310.578 247.022 324.285 247.022 341.192C247.022 358.1 260.729 371.806 277.637 371.806Z" fill="#3EDADD"/>
<path d="M277.637 362.453C289.378 362.453 298.897 352.935 298.897 341.193C298.897 329.452 289.378 319.934 277.637 319.934C265.895 319.934 256.377 329.452 256.377 341.193C256.377 352.935 265.895 362.453 277.637 362.453Z" fill="#3EDADD"/>
</svg>
