<svg width="363" height="728" viewBox="0 0 363 728" fill="none" xmlns="http://www.w3.org/2000/svg">
<path d="M362.889 172.947H358.891V63.4019C358.891 55.0759 357.251 46.8313 354.064 39.1391C350.878 31.4468 346.208 24.4574 340.321 18.57C334.433 12.6826 327.444 8.01244 319.752 4.82619C312.059 1.63995 303.815 6.56629e-06 295.489 2.02178e-10H63.402C46.5868 -4.24345e-05 30.4603 6.67973 18.5701 18.5698C6.6799 30.46 4.77389e-05 46.5864 0 63.4016V664.376C-1.5913e-05 681.191 6.67979 697.318 18.5699 709.208C30.4601 721.098 46.5866 727.778 63.4018 727.778H295.488C312.304 727.778 328.43 721.098 340.32 709.208C352.211 697.318 358.89 681.192 358.89 664.376V250.924H362.889L362.889 172.947Z" fill="#0B0148"/>
<path d="M298.046 16.4961H267.751C269.144 19.9118 269.676 23.6176 269.3 27.2872C268.923 30.9568 267.65 34.4775 265.593 37.5392C263.535 40.6009 260.756 43.1095 257.501 44.8442C254.245 46.5789 250.613 47.4864 246.924 47.4867H113.965C110.276 47.4864 106.644 46.5789 103.388 44.8442C100.133 43.1095 97.3536 40.6009 95.2961 37.5392C93.2385 34.4775 91.9654 30.9568 91.589 27.2872C91.2125 23.6176 91.7444 19.9117 93.1375 16.4961H64.842C58.6242 16.4961 52.4672 17.7208 46.7227 20.1002C40.9782 22.4797 35.7587 25.9673 31.362 30.3639C26.9654 34.7605 23.4778 39.9801 21.0983 45.7246C18.7188 51.4691 17.4941 57.626 17.4941 63.8438V663.936C17.4941 670.154 18.7188 676.311 21.0982 682.056C23.4777 687.8 26.9653 693.02 31.3619 697.416C35.7586 701.813 40.9782 705.301 46.7227 707.68C52.4672 710.06 58.6241 711.284 64.8419 711.284H298.046C304.264 711.284 310.421 710.06 316.165 707.68C321.91 705.301 327.13 701.813 331.526 697.416C335.923 693.02 339.411 687.8 341.79 682.056C344.169 676.311 345.394 670.154 345.394 663.936V663.936V63.8439C345.394 57.6261 344.169 51.4692 341.79 45.7247C339.411 39.9802 335.923 34.7606 331.526 30.3639C327.13 25.9673 321.91 22.4797 316.165 20.1003C310.421 17.7208 304.264 16.4961 298.046 16.4961V16.4961Z" fill="#0B0148"/>
<path d="M213.867 177.703H131.207V185.379H213.867V177.703Z" fill="#3EDADD"/>
<path d="M275.276 204.258H131.207V211.934H275.276V204.258Z" fill="#3EDADD"/>
<path d="M275.135 230.812H131.207V238.489H275.135V230.812Z" fill="#3EDADD"/>
<path d="M114.076 177.816H52.667V239.226H114.076V177.816Z" fill="#3EDADD"/>
<path d="M213.867 338.902H131.207V346.578H213.867V338.902Z" fill="#3EDADD"/>
<path d="M275.276 365.457H131.207V373.133H275.276V365.457Z" fill="#3EDADD"/>
<path d="M275.135 392.012H131.207V399.688H275.135V392.012Z" fill="#3EDADD"/>
<path d="M114.076 339.02H52.667V400.429H114.076V339.02Z" fill="#3EDADD"/>
<path d="M213.867 500.102H131.207V507.778H213.867V500.102Z" fill="#3EDADD"/>
<path d="M275.276 526.656H131.207V534.332H275.276V526.656Z" fill="#3EDADD"/>
<path d="M275.135 553.211H131.207V560.887H275.135V553.211Z" fill="#3EDADD"/>
<path d="M114.076 500.219H52.667V561.628H114.076V500.219Z" fill="#3EDADD"/>
</svg>
